<svg viewBox="0 0 64 64" xmlns="http://www.w3.org/2000/svg">
  <!-- Kebi mascot — source of truth: docs/kebi-app-design-system/kebi-mascot-design.html (88px login variant) -->
  <!-- Body -->
  <ellipse cx="32" cy="38" rx="20" ry="20" fill="#D4B891"/>
  <!-- Belly highlight -->
  <ellipse cx="32" cy="42" rx="13" ry="13" fill="#F5EBD3"/>
  <!-- Wing left -->
  <ellipse cx="13" cy="34" rx="3.5" ry="6" fill="#A89070" transform="rotate(-25 13 34)"/>
  <!-- Wing right -->
  <ellipse cx="51" cy="34" rx="3.5" ry="6" fill="#A89070" transform="rotate(25 51 34)"/>
  <!-- Cheek blush -->
  <ellipse cx="22" cy="36" rx="3" ry="2" fill="#E8B894" opacity="0.6"/>
  <ellipse cx="42" cy="36" rx="3" ry="2" fill="#E8B894" opacity="0.6"/>
  <!-- Eyes -->
  <circle cx="25" cy="30" r="3.5" fill="white"/>
  <circle cx="39" cy="30" r="3.5" fill="white"/>
  <circle cx="25" cy="30" r="1.7" fill="#1A1A1A"/>
  <circle cx="39" cy="30" r="1.7" fill="#1A1A1A"/>
  <!-- Eye sparkle -->
  <circle cx="25.6" cy="29.4" r="0.6" fill="white"/>
  <circle cx="39.6" cy="29.4" r="0.6" fill="white"/>
  <!-- Beak -->
  <path d="M30 33 L34 33 L32 36 Z" fill="#C87A4A"/>
  <!-- Feet -->
  <path d="M27 56 L25 59 M27 56 L27 59 M27 56 L29 59" stroke="#A89070" stroke-width="1.5" stroke-linecap="round" fill="none"/>
  <path d="M37 56 L35 59 M37 56 L37 59 M37 56 L39 59" stroke="#A89070" stroke-width="1.5" stroke-linecap="round" fill="none"/>
  <!-- Tuft -->
  <path d="M30 14 Q32 10 34 14" stroke="#8B7355" stroke-width="1.6" fill="none" stroke-linecap="round"/>
</svg>
